<svg xmlns="http://www.w3.org/2000/svg" height="127" width="696" style=""><rect id="backgroundrect" width="100%" height="100%" x="0" y="0" fill="none" stroke="none"/><g class="currentLayer" style=""><title>Layer 1</title><path d="m342.2375015258789,0.8678405761718864 c-0.5,0.8 -3.9,4.8 -7.5,8.8 c-3.7,4.1 -8.3,9.2 -10.3,11.4 l-3.6,4 l0.30000000000000004,47.5 l0.2,47.5 h23 l0.30000000000000004,-59.4 c0.1,-34.5 -0.2,-59.9 -0.7000000000000001,-60.4 s-1.2,-0.30000000000000004 -1.7000000000000002,0.6000000000000001 zm-341.9,9.9 c-0.30000000000000004,0.7000000000000001 -0.4,25.6 -0.30000000000000004,55.3 l0.30000000000000004,54 l8.5,0.30000000000000004 c13.9,0.5 12.9,1.8 13.2,-16.6 l0.30000000000000004,-15.7 l17,-0.6000000000000001 c18.2,-0.7000000000000001 21.5,-1.4 30.3,-6.8 c6.2,-3.9 9.7,-7.9 13.8,-16 c3.1,-6 3.4,-7.2 3.4,-15.7 c0,-7.1 -0.5,-10.6 -2.2,-15.1 c-3,-7.8 -11.4,-16.3 -20.5,-20.6 l-6.8,-3.2 l-28.3,-0.30000000000000004 c-22.7,-0.30000000000000004 -28.3,-0.1 -28.7,1 zm58.8,25.1 c7.6,5.8 7.6,19.6 0,25.4 c-3.5,2.7 -4.1,2.8 -17.9,3.2 c-7.9,0.2 -15.5,0 -16.9,-0.30000000000000004 l-2.5,-0.6000000000000001 v-14.9 c0,-11 0.30000000000000004,-15.1 1.3,-15.5 c0.6000000000000001,-0.30000000000000004 8.2,-0.4 16.8,-0.30000000000000004 c15.3,0.2 15.6,0.2 19.2,3 zm41.4,-25.6 c-0.4,0.30000000000000004 -0.7000000000000001,25.1 -0.7000000000000001,54.9 v54.4 l2.3,0.5 c1.2,0.30000000000000004 6.3,0.5 11.2,0.30000000000000004 l9,-0.30000000000000004 l0.30000000000000004,-21.8 c0.2,-18.4 0.5,-21.7 1.7000000000000002,-21.7 c0.8,0 1.5,0.30000000000000004 1.5,0.7000000000000001 c0,0.5 1.5,2.4 3.3,4.4 c6.3,7.1 14.6,16.5 20.8,23.9 c3.5,4.2 7.9,9.2 9.8,11.3 l3.4,3.7 h12.1 c6.7,0 12.6,-0.4 13.3,-0.8 c1.2,-0.8 0.8,-1.4 -6,-9.2 c-1.2,-1.4 -6,-7 -10.7,-12.5 c-4.6,-5.5 -8.8,-10.2 -9.2,-10.3 c-2,-0.9 -0.4,-2.9 4.1,-5 c25.5,-12.1 28.3,-49.2 5.1,-65.3 c-10.2,-7.1 -14.7,-7.9 -44.5,-7.9 c-14.4,0 -26.5,0.30000000000000004 -26.8,0.7000000000000001 zm55.1,23.1 c1.2,0.4 3.8,2.2 5.7,4.1 c3.4,3.3 3.5,3.6 3.5,11.1 s-0.1,7.8 -3.6,11.3 c-4.3,4.3 -8.1,5 -25.9,4.5 l-12,-0.30000000000000004 l-0.30000000000000004,-14.5 c-0.1,-7.9 0,-15 0.2,-15.7 c0.4,-1 4.1,-1.3 15.3,-1.2 c8.1,0.1 15.8,0.4 17.1,0.7000000000000001 zm60.6,-22.5 c-0.2,0.7000000000000001 -0.30000000000000004,5.8 -0.2,11.3 l0.30000000000000004,9.9 l16,0.5 l16,0.5 l0.30000000000000004,46 c0.1,25.3 0.5,46.7 0.8,47.5 c0.4,1.2 1,1 2.6,-1 c1.1,-1.4 4.8,-5.6 8.2,-9.4 c3.3,-3.7 7.2,-8.2 8.6,-9.8 l2.5,-3.1 l0.5,-35.1 l0.5,-35.1 l16,-0.5 l16,-0.5 l0.30000000000000004,-10.4 c0.2,-7.7 -0.1,-10.7 -1,-11.3 c-0.7000000000000001,-0.4 -20.6,-0.8 -44.1,-0.8 c-34.5,0 -42.9,0.30000000000000004 -43.3,1.3 zm170.6,-0.7000000000000001 c-9.2,3.3 -15.3,8.7 -18.9,16.7 c-2.1,4.5 -2.1,5.8 -1.9,48.9 l0.30000000000000004,44.3 l8.5,0.30000000000000004 c4.7,0.2 9.5,0 10.8,-0.30000000000000004 l2.2,-0.5 v-41.9 c0,-36.8 0.2,-42.1 1.6,-43.5 c2.3,-2.3 17.9,-2.3 18.8,0 c0.30000000000000004,0.9 0.6000000000000001,20.4 0.6000000000000001,43.4 c0,39.1 0.1,41.9 1.8,42.2 c0.9,0.2 6,0.30000000000000004 11.2,0.30000000000000004 h9.5 l0.5,-43.5 l0.5,-43.5 l8.5,-0.30000000000000004 c4.7,-0.1 9.2,0.2 10,0.8 c1.3,0.8 1.6,7.2 2,43.7 l0.5,42.8 l8,0.30000000000000004 c4.4,0.2 9.5,0 11.3,-0.30000000000000004 l3.2,-0.6000000000000001 v-40.9 c0,-44.1 -0.4,-47.9 -5.3,-55.6 c-3,-4.7 -5.9,-7.4 -11.2,-10.6 c-4,-2.3 -4.3,-2.3 -37.5,-2.5 c-18.4,-0.1 -34.2,0 -35,0.30000000000000004 zm132,0.1 c-8.8,3 -16.1,8.9 -19.6,16.1 c-1.7000000000000002,3.4 -1.9,6.5 -1.9,37.2 c0,18.4 0.4,35.2 0.8,37.2 c1,4.8 8.1,12.7 14.9,16.4 l5.3,2.9 l38.8,0.30000000000000004 c26.8,0.2 38.7,0 38.8,-0.7000000000000001 c0,-0.6000000000000001 0,-5.7 0.1,-11.4 v-10.2 l-37.2,-0.5 c-43.2,-0.6000000000000001 -40,0.4 -40,-11.6 c0,-10.9 -1.5,-10.5 34,-10.4 h30.8 c1,0 1.2,-2.5 1,-10.8 l-0.30000000000000004,-10.7 l-31.4,-0.30000000000000004 c-21.2,-0.1 -31.9,-0.6000000000000001 -32.8,-1.3 c-0.9,-0.8 -1.3,-3.6 -1.3,-8.5 c0,-12.2 -2.7,-11.4 40.4,-11.4 h36.5 l0.30000000000000004,-10.3 c0.2,-5.6 0.1,-10.8 -0.1,-11.5 c-0.2,-0.9 -8.6,-1.2 -38,-1.1 c-20.7,0 -38.3,0.30000000000000004 -39.1,0.6000000000000001 zm112.5,1.2 c-9.9,3.5 -15.4,8.2 -20,17.1 c-1.3,2.5 -1.9,6.5 -2.3,13.6 c-0.4,9.2 -0.2,10.5 2.1,15.6 c3.5,7.5 8.2,12.6 14.2,15.4 c4.6,2.2 6.3,2.4 21.2,2.4 c13.6,0 16.8,0.30000000000000004 20.6,1.9 c5.4,2.3 7.3,6.3 5.7,12.1 c-1.9,7.2 -3,7.5 -33.3,7.8 l-26.8,0.30000000000000004 l0.30000000000000004,11.2 l0.30000000000000004,11.2 h27.5 c23.4,-0.1 28.2,-0.30000000000000004 32.3,-1.8 c10.1,-3.6 16,-9 20.3,-18.3 c1.9,-4.3 2.4,-6.9 2.4,-13.9 c0,-10 -2.4,-16.6 -8.6,-23.5 c-6.4,-7 -10.2,-8.1 -30.9,-9 c-9.9,-0.30000000000000004 -19.2,-1.2 -20.6,-1.8 c-1.4,-0.5 -3.4,-2.7 -4.3,-4.7 c-1.7000000000000002,-3.6 -1.7000000000000002,-3.9 0,-7.8 c2.9,-6.3 4.8,-6.7 31.8,-6.7 c20.4,0 23.5,-0.2 24,-1.6 c0.30000000000000004,-0.9 0.6000000000000001,-5.8 0.6000000000000001,-10.9 c0,-7.5 -0.30000000000000004,-9.4 -1.6,-9.9 c-0.9,-0.30000000000000004 -12.4,-0.6000000000000001 -25.7,-0.6000000000000001 c-20.8,0.1 -24.9,0.30000000000000004 -29.2,1.9 z" fill="#21577b" id="svg_1" class=""/></g></svg>