<?xml version="1.0" encoding="UTF-8"?>
<svg xmlns="http://www.w3.org/2000/svg" xmlns:xlink="http://www.w3.org/1999/xlink" width="7217pt" height="1317pt" viewBox="0 0 7217 1317" version="1.1">
<g id="surface1">
<path style=" stroke:none;fill-rule:nonzero;fill:rgb(100%,100%,100%);fill-opacity:1;" d="M 3548.746094 9 C 3543.5625 17.296875 3508.308594 58.777344 3470.976562 100.257812 C 3432.613281 142.773438 3384.914062 195.660156 3364.175781 218.476562 L 3326.84375 259.957031 L 3329.957031 752.535156 L 3332.03125 1245.113281 L 3570.523438 1245.113281 L 3573.632812 629.128906 C 3574.671875 271.363281 3571.558594 7.960938 3566.375 2.777344 C 3561.191406 -2.40625 3553.933594 -0.332031 3548.746094 9 Z M 3.5 111.664062 C 0.390625 118.921875 -0.648438 377.136719 0.390625 685.128906 L 3.5 1245.113281 L 91.636719 1248.222656 C 235.769531 1253.410156 225.402344 1266.890625 228.511719 1076.082031 L 231.625 913.269531 L 407.902344 907.046875 C 596.621094 899.789062 630.839844 892.53125 722.089844 836.53125 C 786.378906 796.089844 822.671875 754.609375 865.183594 670.609375 C 897.328125 608.390625 900.441406 595.945312 900.441406 507.800781 C 900.441406 434.171875 895.253906 397.878906 877.628906 351.210938 C 846.519531 270.324219 759.417969 182.179688 665.058594 137.589844 L 594.546875 104.40625 L 301.097656 101.292969 C 65.714844 98.183594 7.648438 100.257812 3.5 111.664062 Z M 613.210938 371.953125 C 692.019531 432.097656 692.019531 575.207031 613.210938 635.351562 C 576.917969 663.351562 570.699219 664.386719 427.601562 668.535156 C 345.683594 670.609375 266.878906 668.535156 252.363281 665.425781 L 226.4375 659.203125 L 226.4375 504.6875 C 226.4375 390.617188 229.550781 348.101562 239.917969 343.953125 C 246.140625 340.84375 324.945312 339.804688 414.121094 340.84375 C 572.773438 342.917969 575.882812 342.917969 613.210938 371.953125 Z M 1042.5 106.476562 C 1038.351562 109.589844 1035.242188 366.765625 1035.242188 675.796875 L 1035.242188 1239.929688 L 1059.089844 1245.113281 C 1071.53125 1248.222656 1124.414062 1250.296875 1175.226562 1248.222656 L 1268.546875 1245.113281 L 1271.660156 1019.046875 C 1273.734375 828.234375 1276.84375 794.015625 1289.285156 794.015625 C 1297.582031 794.015625 1304.839844 797.125 1304.839844 801.273438 C 1304.839844 806.457031 1320.394531 826.160156 1339.058594 846.902344 C 1404.386719 920.53125 1490.449219 1018.007812 1554.738281 1094.746094 C 1591.03125 1138.300781 1636.65625 1190.152344 1656.359375 1211.929688 L 1691.613281 1250.296875 L 1817.082031 1250.296875 C 1886.554688 1250.296875 1947.734375 1246.148438 1954.992188 1242 C 1967.4375 1233.707031 1963.289062 1227.484375 1892.777344 1146.597656 C 1880.335938 1132.078125 1830.5625 1074.007812 1781.828125 1016.972656 C 1734.128906 959.9375 1690.578125 911.195312 1686.429688 910.160156 C 1665.691406 900.828125 1682.28125 880.085938 1728.941406 858.308594 C 1993.359375 732.832031 2022.394531 348.101562 1781.828125 181.144531 C 1676.058594 107.515625 1629.398438 99.21875 1320.394531 99.21875 C 1171.078125 99.21875 1045.609375 102.332031 1042.5 106.476562 Z M 1613.84375 346.027344 C 1626.289062 350.175781 1653.246094 368.839844 1672.949219 388.542969 C 1708.203125 422.765625 1709.242188 425.875 1709.242188 503.652344 C 1709.242188 581.429688 1708.203125 584.539062 1671.914062 620.835938 C 1627.324219 665.425781 1587.921875 672.683594 1403.347656 667.5 L 1278.917969 664.386719 L 1275.808594 514.023438 C 1274.769531 432.097656 1275.808594 358.472656 1277.878906 351.210938 C 1282.027344 340.84375 1320.394531 337.730469 1436.53125 338.769531 C 1520.519531 339.804688 1600.363281 342.917969 1613.84375 346.027344 Z M 2242.222656 112.699219 C 2240.148438 119.960938 2239.109375 172.847656 2240.148438 229.882812 L 2243.257812 332.546875 L 2409.167969 337.730469 L 2575.074219 342.917969 L 2578.183594 819.941406 C 2579.222656 1082.300781 2583.371094 1304.222656 2586.480469 1312.519531 C 2590.628906 1324.960938 2596.851562 1322.886719 2613.441406 1302.148438 C 2624.847656 1287.628906 2663.214844 1244.074219 2698.46875 1204.667969 C 2732.6875 1166.300781 2773.128906 1119.636719 2787.644531 1103.042969 L 2813.566406 1070.894531 L 2818.75 706.90625 L 2823.9375 342.917969 L 2989.84375 337.730469 L 3155.753906 332.546875 L 3158.863281 224.695312 C 3160.9375 144.847656 3157.828125 113.738281 3148.492188 107.515625 C 3141.234375 103.367188 2934.886719 99.21875 2691.210938 99.21875 C 2333.472656 99.21875 2246.367188 102.332031 2242.222656 112.699219 Z M 4011.214844 105.441406 C 3915.820312 139.664062 3852.566406 195.660156 3815.238281 278.621094 C 3793.460938 325.285156 3793.460938 338.769531 3795.535156 785.71875 L 3798.644531 1245.113281 L 3886.785156 1248.222656 C 3935.519531 1250.296875 3985.292969 1248.222656 3998.773438 1245.113281 L 4021.585938 1239.929688 L 4021.585938 805.421875 C 4021.585938 423.800781 4023.660156 368.839844 4038.175781 354.324219 C 4062.023438 330.472656 4223.785156 330.472656 4233.117188 354.324219 C 4236.230469 363.65625 4239.339844 565.871094 4239.339844 804.382812 C 4239.339844 1209.855469 4240.375 1238.890625 4258.003906 1242 C 4267.335938 1244.074219 4320.21875 1245.113281 4374.140625 1245.113281 L 4472.648438 1245.113281 L 4483.015625 342.917969 L 4571.15625 339.804688 C 4619.890625 338.769531 4666.550781 341.878906 4674.847656 348.101562 C 4688.328125 356.398438 4691.4375 422.765625 4695.585938 801.273438 L 4700.769531 1245.113281 L 4783.726562 1248.222656 C 4829.351562 1250.296875 4882.234375 1248.222656 4900.898438 1245.113281 L 4934.078125 1238.890625 L 4934.078125 814.753906 C 4934.078125 357.433594 4929.933594 318.027344 4879.121094 238.179688 C 4848.015625 189.4375 4817.945312 161.441406 4762.988281 128.253906 C 4721.507812 104.40625 4718.398438 104.40625 4374.140625 102.332031 C 4183.34375 101.292969 4019.511719 102.332031 4011.214844 105.441406 Z M 5379.957031 106.476562 C 5288.707031 137.589844 5213.011719 198.773438 5176.71875 273.4375 C 5159.09375 308.695312 5157.019531 340.84375 5157.019531 659.203125 C 5157.019531 850.011719 5161.167969 1024.230469 5165.3125 1044.96875 C 5175.683594 1094.746094 5249.304688 1176.671875 5319.816406 1215.039062 L 5374.773438 1245.113281 L 5777.101562 1248.222656 C 6054.996094 1250.296875 6178.390625 1248.222656 6179.425781 1240.964844 C 6179.425781 1234.742188 6179.425781 1181.855469 6180.464844 1122.746094 L 6180.464844 1016.972656 L 5794.726562 1011.785156 C 5346.777344 1005.5625 5379.957031 1015.933594 5379.957031 891.492188 C 5379.957031 778.460938 5364.402344 782.609375 5732.511719 783.644531 L 6051.886719 783.644531 C 6062.253906 783.644531 6064.328125 757.71875 6062.253906 671.648438 L 6059.144531 560.6875 L 5733.546875 557.578125 C 5513.71875 556.539062 5402.769531 551.355469 5393.4375 544.09375 C 5384.105469 535.800781 5379.957031 506.761719 5379.957031 455.949219 C 5379.957031 329.433594 5351.960938 337.730469 5798.875 337.730469 L 6177.351562 337.730469 L 6180.464844 230.917969 C 6182.539062 172.847656 6181.5 118.921875 6179.425781 111.664062 C 6177.351562 102.332031 6090.25 99.21875 5785.394531 100.257812 C 5570.75 100.257812 5388.253906 103.367188 5379.957031 106.476562 Z M 6546.5 118.921875 C 6443.84375 155.21875 6386.8125 203.957031 6339.113281 296.25 C 6325.632812 322.175781 6319.410156 363.65625 6315.265625 437.285156 C 6311.117188 532.6875 6313.191406 546.167969 6337.039062 599.058594 C 6373.332031 676.832031 6422.066406 729.71875 6484.28125 758.757812 C 6531.980469 781.570312 6549.609375 783.644531 6704.109375 783.644531 C 6845.132812 783.644531 6878.3125 786.753906 6917.71875 803.347656 C 6973.710938 827.199219 6993.414062 868.679688 6976.820312 928.824219 C 6957.121094 1003.488281 6945.714844 1006.601562 6631.527344 1009.710938 L 6353.628906 1012.824219 L 6356.742188 1128.96875 L 6359.851562 1245.113281 L 6645.007812 1245.113281 C 6887.648438 1244.074219 6937.417969 1242 6979.933594 1226.445312 C 7084.664062 1189.113281 7145.839844 1133.117188 7190.429688 1036.675781 C 7210.128906 992.082031 7215.316406 965.121094 7215.316406 892.53125 C 7215.316406 788.828125 7190.429688 720.386719 7126.140625 648.832031 C 7059.777344 576.242188 7020.375 564.835938 6805.730469 555.503906 C 6703.074219 552.390625 6606.640625 543.058594 6592.121094 536.835938 C 6577.605469 531.652344 6556.867188 508.835938 6547.535156 488.097656 C 6529.90625 450.765625 6529.90625 447.652344 6547.535156 407.210938 C 6577.605469 341.878906 6597.308594 337.730469 6877.277344 337.730469 C 7088.808594 337.730469 7120.953125 335.65625 7126.140625 321.140625 C 7129.25 311.804688 7132.359375 260.992188 7132.359375 208.105469 C 7132.359375 130.328125 7129.25 110.625 7115.769531 105.441406 C 7106.4375 102.332031 6987.191406 99.21875 6849.28125 99.21875 C 6633.601562 100.257812 6591.085938 102.332031 6546.5 118.921875 Z M 6546.5 118.921875 "/>
</g>
</svg>
